<svg xmlns="http://www.w3.org/2000/svg" viewBox="1431 1422 21.806 17">
  <defs>
    <style>
      .cls-1, .cls-4 {
        fill: none;
      }

      .cls-1 {
        stroke: #000;
      }

      .cls-2 {
        fill: #323232;
      }

      .cls-3 {
        stroke: none;
      }
    </style>
  </defs>
  <g id="グループ化_2498" data-name="グループ化 2498" transform="translate(1131 -165)">
    <g id="長方形_48" data-name="長方形 48" class="cls-1" transform="translate(300 1589)">
      <rect class="cls-3" width="15" height="15"/>
      <rect class="cls-4" x="0.5" y="0.5" width="14" height="14"/>
    </g>
    <g id="グループ化_2306" data-name="グループ化 2306" transform="translate(303.046 1587)">
      <g id="グループ化_2305" data-name="グループ化 2305">
        <g id="グループ化_2304" data-name="グループ化 2304">
          <g id="グループ化_2303" data-name="グループ化 2303">
            <g id="グループ化_2302" data-name="グループ化 2302">
              <path id="パス_7325" data-name="パス 7325" class="cls-2" d="M3.8,8.2Z"/>
              <path id="パス_7326" data-name="パス 7326" class="cls-2" d="M14,2.8Z"/>
              <path id="パス_7327" data-name="パス 7327" class="cls-2" d="M3.6,12Z"/>
              <path id="パス_7328" data-name="パス 7328" class="cls-2" d="M1.6,8.8c.4.8.3,1.2.9,1.8.1.2.3.3.4.5a5.716,5.716,0,0,0,.7.8c.4.1.7.9,1,1l.1.3q.15,0,.3.3v.1c.1,0,.1.1.2.1l.2-.2v.1l.2-.2v.1c.2-.5.4-.8.7-.9l-.1-.2c.6-.3.6-.8,1.2-1h0c0-.6.8-.2.8-.9a.1.1,0,0,0,.1.1c.1-.2.3-.4.1-.6.1-.1.2,0,.3.1-.1-.1,0-.2.1-.3v.1L9,9.6l-.2-.2c.2,0,.2.3.3.1L9,9.3c.2-.1.6,0,.9,0,.9-.6,1.3-1.8,2.3-2.1l.1.1c.2.2,0-.5.1-.3V6.8c.1,0,.1,0,.1.1.1-.1.1-.1.1-.2h.2c.4-.2.5-.6.8-.9.6-.1,1.2-1,1.5-1.5.3-.8,1.7-.7,2-1.5V2.7l.6-.5S20.5-.1,17,.1V0c-.4.2-.6.3-.6.7-.2-.2-.2.3-.4.2h0c0,.4-.5.2-.6.5,0,0-.1-.1,0-.1-.1.1-.2.4-.4.2-.3.3-.8.6-.8,1.1V2.5c0,.3-.1.2-.2.4h0c0,.3-.3.3-.4.5l-.1-.1-.2.2.1-.1c.2.3-.3,0-.4.3-.2.1.2.9-.1.9,0,.2-.1-.3-.1-.1-.1-.1,0-.1-.2-.2-.1.2-.3,0-.4.3l-.1-.1c0,.4-.5.2-.5.5-.1.3-.4-.2-.4.2L11,5.1c-.1.1.1.2-.1.3-.1-.1-.2,0-.2-.1-.4.1-.3.6-.8.6.1.3-.2.3-.1.5-.1-.1-.3.2-.3-.1h.1l-.1-.2c-.4,0-.2.4-.4.5.1,0,.1-.1.2,0l-.2.2V6.7l-.4.1.1.1c-.1.1-.3-.1-.3.2,0,.1.2.1.2.2a1.33,1.33,0,0,0-.8.3c.1.1.1.1,0,.2l-.1-.1c0,.3-.3-.2-.4.1V7.7l.1.3c0,.4-.3-.1-.2.3.1-.1.3.2.1.3l-.1-.1c0,.1,0,.1-.1.1,0-.1-.1-.2-.2-.1v.1c-.2.1-.3.4-.4.3,0,0-.3.2-.2.4-.1-.2-.3-.1-.4-.3,0,.2-.1.4-.3.4h0c-.1.1-.1,0-.1.1v.1c0,.1,0,.1-.1.1v.4c0,.2-.1.1-.1,0,0,0,0-.1-.1.3v.2c-.1,0,0-.3,0-.4h0c-.1,0-.1,0-.1-.1s-.2.1-.2,0c.1-.1.1-.1,0-.1a.1.1,0,0,0,.1-.1H5V10c0-.2-.2-.2,0-.3a4.7,4.7,0,0,0-.9-.6A.367.367,0,0,1,4.4,9l-.2-.1c.1-.1.2,0,.2.1,0-.4-.5-.3-.5-.7H3.6c0-.1.2-.2.1-.3,0-.2-.3-.2-.4-.3,0,.1,0,.1-.1.1a.139.139,0,0,1,0-.2l.1-.1c-.1.1-.3,0-.4,0,.1-.1.2,0,.3,0-.2-.3-.1-.2-.3-.5-.2,0-.1.2-.3.2-.1-.1-.3-.1-.3-.3L2.2,7a.51.51,0,0,1-.4-.5C-.5,5.7,0,7.3,0,7.3.3,8.1.9,8.1,1.6,8.8Z"/>
            </g>
          </g>
        </g>
      </g>
    </g>
  </g>
</svg>
