<?xml version="1.0" encoding="utf-8"?>
<!-- Generator: Adobe Illustrator 21.1.0, SVG Export Plug-In . SVG Version: 6.00 Build 0)  -->
<svg version="1.1" id="レイヤー_1" xmlns="http://www.w3.org/2000/svg" xmlns:xlink="http://www.w3.org/1999/xlink" x="0px"
	 y="0px" viewBox="0 0 180 115" style="enable-background:new 0 0 180 115;" xml:space="preserve">
<style type="text/css">
	.st0{fill:none;}
</style>
<rect class="st0" width="180" height="115"/>
<g>
	<path d="M127.6,47.8l-0.2-0.3C127.3,47.6,127.4,47.6,127.6,47.8z"/>
	<path d="M142,57.2c0-0.3-0.1-0.5-0.1-0.5c-0.2-1.5-0.7-2.7-1.2-3.6c-0.6-1-1.2-1.7-1.9-2.5c-1.5-1.4-3.1-2.6-5.4-4.1
		c-1.9-1.5-3.1-2.4-4.4-3.3c-1.3-0.9-2.6-1.7-4.9-2.6c-1.2-0.6-2.6-1-3.9-1.5c1.1-2.3,1.6-6.5,1.5-9.1c-0.1-1.9,0.3-3.9,0.3-6.3
		c0-1.3-0.2-2.2-0.5-3.3c-0.3-1-0.7-2.1-1.4-2.9c0-0.2-0.3-0.4-0.4-0.4c-0.4-0.8-1-1.5-1.6-2.2c0-0.1,0-0.1,0-0.2
		c-0.1-0.3-0.3-0.6-0.6-0.9c-0.3-0.3-0.7-0.6-1.1-0.9c-0.4-0.2-0.7-0.4-1-0.6c-0.3-0.1-0.4-0.2-0.4-0.2c-1.4-0.6-2.6-0.7-3.8-0.7
		c-1.1,0-2.1,0.2-3.1,0.5c-2,0.6-3.8,1.5-6.3,2.7c-2.2,0.9-3.6,1.5-5,2.2c-1.4,0.7-2.8,1.4-4.7,3c-1.1,0.8-2.2,1.8-3.3,2.8
		c-1.5-2.1-4.9-4.6-7.2-5.9c-1.7-0.8-3.3-2.2-5.4-3.4c-1.1-0.6-2-0.9-3.1-1.2c-1-0.3-2.2-0.4-3.3-0.2c-0.1-0.1-0.5,0.1-0.5,0.1
		c-0.9,0-1.8,0.1-2.7,0.3c-0.1,0-0.1-0.1-0.2-0.1c-0.3,0-0.7,0-1.1,0.1c-0.4,0.1-0.9,0.3-1.3,0.5c-0.4,0.2-0.7,0.4-1,0.6
		c-0.2,0.2-0.4,0.3-0.4,0.3c-1.2,0.9-2,1.9-2.5,2.9c-0.6,1-0.9,1.9-1.1,2.9c-0.5,2-0.6,4-0.8,6.8c-0.3,2.4-0.5,3.9-0.6,5.4
		c-0.1,1.5-0.1,3.1,0.3,5.5c0.1,1.1,0.3,2.2,0.6,3.3c-0.8,0.3-1.6,0.7-2.5,1c-2.8,0.4-7.6,3.2-10,5.3c-1.7,1.6-3.8,2.8-5.6,5
		c-1.8,2.1-2.8,5.4-1.6,8.2c0,0.2,0.3,0.6,0.4,0.6c0.6,1.6,1.5,3,2.6,4.1c0,0,0.4,0.4,0.9,0.9c-0.1,0.1-0.1,0.3,0,0.4
		c0.3,0.9,1.8,2.2,1.8,2.2c2.9,2.7,5.1,2.8,9.3,4.6c1.8,0.9,2.9,1.6,4,2.2c0.6,0.3,1.2,0.7,2,0.9c-0.1,1.1-0.2,2.2-0.5,3.3
		c-1,2.7-1,8.2-0.4,11.4c0.5,2.2,0.5,4.7,1.5,7.3c1,2.6,3.3,5.1,6.3,5.5c0.2,0.1,0.7,0,0.7,0c1.7,0.3,3.4,0.2,4.8-0.2
		c0,0,0.5-0.1,1.3-0.4c0.1,0.1,0.2,0.2,0.3,0.2c1,0.2,2.8-0.5,2.8-0.5c3.8-1.2,5-3.1,8.6-5.8c1.7-1.1,2.8-1.7,3.9-2.4
		c0.6-0.4,1.2-0.8,1.9-1.3c0.9,0.7,1.8,1.3,2.7,2.1c1.8,2.2,6.6,4.9,9.7,5.9c2.2,0.6,4.3,1.9,7.1,2.3c2.8,0.4,6-0.3,7.9-2.8
		c0.2-0.1,0.4-0.6,0.3-0.6c1.1-1.3,1.8-2.8,2.2-4.3c0,0,0.1-0.5,0.3-1.3c0.1,0,0.3-0.1,0.4-0.2c0.7-0.7,1-2.7,1-2.7
		c0.8-3.9-0.2-5.9-0.9-10.4c-0.1-2-0.1-3.3-0.1-4.6c0-0.6-0.1-1.3-0.2-2c2.6-0.3,6.2-1.9,8.4-3.2c1.6-1.1,3.6-1.7,5.6-2.9
		c1.1-0.7,1.8-1.3,2.6-2c0.8-0.7,1.4-1.7,1.8-2.7c0.1-0.1,0.2-0.5,0.1-0.5c0.5-0.7,0.8-1.6,1.1-2.5c0.1,0,0.1-0.1,0.2-0.1
		c0.2-0.2,0.4-0.6,0.5-1c0.1-0.4,0.2-0.9,0.3-1.4C142,58,142,57.6,142,57.2z M114.9,42.9c-0.2,1.2-1.1,0.5-0.9,1.9l-0.5,0.3
		c-0.2,0.5,0.3,0.5-0.1,1c-0.2-0.1-0.4,0.7-0.5,0.2c-0.8,1.1-0.5,2.7-1.6,4.1c-0.3-0.7-0.7-1.4-1.5-2c0.2,0.2,0.1-0.2,0.2-0.2
		c-0.7-0.8-1.3-1.6-1.9-1.2c-0.4-0.6-0.2-0.6,0-0.8c-0.2,0.2-0.7-0.3-1.1-0.7l0.2,0.1l-1-1.3l-0.3,0.6c-0.4-0.8,0.4-0.6-0.2-1.2
		l-0.4,0.3c-0.4-0.7-0.5-1.4-0.7-2.2c0.2,0,0.3,0.1,0.5,0.1c-0.1-0.3,0.9-0.1,0.7-0.5c0.9-0.1,1.8,0.1,2.5,0.3
		c0.7,0.2,1.2,0.2,1.6-0.4c0.8,0,0.9,0.5,1.3,0.6l-0.2,0c1.5,0.2,2,0.3,3.1,0.6c0.3,0,0.5-0.2,0.8-0.2
		C114.9,42.6,114.9,42.8,114.9,42.9z M113,62.5c0.3,0.7,0,0.9,0.1,1.3l-0.1-0.1c0.6,1.2,0.7,1.6,1,2.6c0.3,0.4,0.9,0.3,1,1.2
		c-0.3-0.2-0.2,0.1-0.1,0.5c-0.1-0.2-0.2-0.2-0.2,0.2c0.1,0,0.2,0.1,0.2,0.2c0,0,0,0-0.1,0c0.2,0.5,0.3,0.4,0.2,0.1
		c0,0,0.1,0,0.1-0.1c-0.1,0.6,0.5,1.6,0.1,1.8c0.2,0.6,0.4,1.2,0.6,1.7c-0.2,0-0.5,0.1-0.6,0.3c-1.2,0.5-1-0.7-2.1,0.1l-0.6-0.3
		c-0.5,0-0.3,0.5-0.9,0.5c0-0.3-0.8-0.1-0.5-0.4c-1.3-0.1-2.6,0.9-4.3,0.7c0.4-0.6,0.9-1.3,0.9-2.2c0,0.3,0.2,0,0.3,0
		c0.3-0.9,0.7-1.9,0.1-2.2c0.3-0.7,0.4-0.5,0.7-0.4c-0.3-0.1-0.1-0.7,0.1-1.3l0,0.3l0.6-1.5l-0.6,0.1c0.5-0.7,0.7,0.1,0.9-0.7
		l-0.4-0.2c0.6-1,1.5-1.4,2.3-2.3c0.1-0.2,0.2-0.4,0.3-0.6C112.1,62.1,112.4,62.4,113,62.5z M97.3,80.1c-0.4,0.6-0.8,0.5-1.1,0.7
		l0.1-0.2c-0.8,1.1-1,1.4-1.7,2.1c-0.3,0.5,0.1,0.9-0.6,1.5c0-0.4-0.2-0.1-0.4,0.2c0.1-0.2,0.1-0.3-0.3-0.1c0,0.1,0,0.2-0.1,0.3
		c0,0,0,0-0.1,0c-0.3,0.5-0.2,0.5,0,0.3c0,0,0.1,0.1,0.2,0c-0.6,0.2-1.1,1.2-1.5,0.9c-0.4,0.4-0.7,0.7-0.9,1.1l-0.1-0.5
		c-0.4-0.5-0.7,0-1-0.7c0.2-0.1-0.4-0.8,0-0.6c-0.7-1.4-2.5-2.1-3.2-4.2c-0.7-0.1-1.1-1.1-1.6-1.1c0,0,0,0,0-0.1c0,0,0,0,0,0
		c0.9,0.1,1.8,0.3,2.8-0.2c-0.3,0.1,0.1,0.2,0.1,0.2c1-0.2,2-0.3,2-1c0.7-0.1,0.6,0.2,0.7,0.4c0-0.3,0.6-0.5,1.2-0.5l-0.2,0.1
		l1.6-0.3L92.9,78c0.9,0.1,0.3,0.6,1.1,0.4L93.9,78c1.2,0,2,0.6,3.2,0.8c0.2,0,0.4,0,0.6-0.1C97.2,79.1,97,79.5,97.3,80.1z
		 M70.6,74.1c-0.5,0-0.7,0.6-1.6,0.2c0.3-0.2,0-0.2-0.4-0.3c0.2,0,0.3-0.1-0.1-0.3c-0.1,0.1-0.2,0.1-0.3,0.1c0,0,0,0,0-0.1
		c-0.6-0.1-0.5,0-0.2,0.1c0,0,0,0.1,0,0.2c-0.5-0.4-1.6-0.4-1.5-0.8c-0.6-0.1-1.1-0.2-1.6-0.3l0.5-0.4c0.3-0.6-0.3-0.6,0.1-1.2
		c0.2,0.1,0.5-0.8,0.6-0.3c0.9-1.3,0.6-3.2,2-4.9c-0.3-0.6,0.4-1.5,0.2-1.9c0.1,0,0.3-0.4,0.5-0.7c0.1,0.1,0.1,0.2,0.2,0.3
		c0,0,0,0,0,0l0,0.1c0.2,0.3,0.5,0.7,0.9,1c-0.3-0.2-0.1,0.2-0.2,0.2c0.7,1,1.4,2,2,1.6c0.4,0.7,0.2,0.7,0,0.9
		c0.2-0.2,0.7,0.4,1.1,1l-0.3-0.2l1.1,1.5l0.3-0.6c0.4,0.9-0.4,0.6,0.2,1.3l0.4-0.3c0.7,1.2,0.5,2.3,1,3.6c0.2,0.3,0.4,0.6,0.6,1
		c-0.8-0.3-1.5-0.6-2,0.2c-0.7-0.1-0.8-0.5-1.1-0.6l0.2,0C72,74.4,71.6,74.4,70.6,74.1z M65.6,47.7l0.1,0.2c-0.6-1.4-0.8-1.8-1.1-3
		c-0.2-0.4-0.7-0.5-0.9-1c0.2,0,0.4-0.1,0.7-0.3l0.6,0.3c0.6,0,0.4-0.5,1.1-0.5c0,0.3,0.9,0,0.5,0.3c1.6,0.1,3.1-1,5.2-0.6
		c0.4-0.5,1.5-0.4,1.8-0.8c0,0.1,0.5,0.1,0.9,0.1c-0.1,0.1-0.1,0.2-0.2,0.3c0,0,0,0,0,0l-0.1,0.3c0,0,0,0,0,0
		c-0.1,0.3-0.2,0.6-0.3,1c0.1-0.3-0.2,0-0.3,0c-0.5,1.1-1,2.2-0.5,2.5c-0.4,0.7-0.5,0.5-0.8,0.5c0.3,0.1,0,0.8-0.3,1.4l0-0.3
		l-0.8,1.7l0.7-0.1c-0.6,0.8-0.7-0.1-1,0.8l0.4,0.2c-0.7,1.2-1.7,1.6-2.6,2.6c0-0.1-0.1-0.2-0.1-0.4c-0.3,0.2-0.5-0.7-0.8-0.3
		c-0.6-0.7-0.8-1.6-1-2.3c-0.2-0.7-0.4-1.1-1.1-1.2C65.4,48.4,65.7,48.1,65.6,47.7z M83.7,36c0.3-0.9,1-1.5,1.5-2
		c0.5-0.5,0.8-0.9,0.5-1.6c0.4-0.7,0.9-0.6,1.2-0.9l-0.1,0.2c0.9-1.3,1.2-1.6,2-2.4c0.1-0.2,0.1-0.5,0.2-0.7
		c0.1,0.1,0.2,0.1,0.3,0.2c1,0.7-0.1,1.2,1.2,1.7l0,0.6c0.3,0.5,0.6,0,0.9,0.6c-0.2,0.1,0.4,0.7-0.1,0.6c0.6,1.3,2.2,1.8,2.9,3.6
		c0.5,0,0.8,0.6,1.2,0.8c-0.4,0-0.8,0.1-1.2,0.2c0.3-0.1-0.1-0.2-0.1-0.3c-1.2,0.1-2.4,0.2-2.4,0.8c-0.8,0-0.7-0.2-0.8-0.4
		c0,0.3-0.7,0.4-1.4,0.5l0.3-0.1l-1.9,0.2l0.4,0.5c-1-0.1-0.3-0.7-1.2-0.5l0,0.5c-1.3,0-2.2-0.6-3.5-0.9c0.1-0.1,0.2-0.2,0.3-0.3
		C83.5,36.7,84.2,36,83.7,36z M105,49c-0.2-0.1-0.4,0.2-0.1,0.5l-0.5-0.1l1,0.5c0.2,0.8,1.2,1.5,1,1.9c0,0,0.6,1.4,1.2,1.4
		c-0.4-0.1,0,0.6-0.4,0.6c0.5,0.2,1.3,1,1.3,1.5l-0.1-0.1c0.1,0.4,0.3,0.7,0.4,1l-0.2,0.4l0.3-0.1c-0.4,0.6-1,0.6-0.9,1.5
		c0.1,0.4,0.6-0.4,0.4,0.3c-0.6,0.8-1.4,1.9-1.9,3c0.4,0,0.2,0.3,0.1,0.6l-0.3-0.1c-0.1,1.3-0.8,0.2-1,1.4l-0.1-0.2l0.4,0.5
		c0.1,1.3-0.8,0.3-0.6,1.8c0.2-0.5,0.7,0.1,0.3,0.6l-0.2-0.3c-0.1,0.3,0,0.5-0.2,0.7c-0.1-0.2-0.3-0.3-0.5,0.2l-0.2-0.4l0.1,1.1
		c-0.6,0.5-0.7,1.7-1.2,1.8c0,0-0.9,1.2-0.6,1.7c-0.1-0.4-0.6,0.3-0.7-0.1c0.1,0.5-0.2,1.6-0.7,1.8l0-0.1c-0.3,0.3-0.5,0.6-0.6,0.8
		l-0.5,0l0.2,0.3c-0.7-0.1-1-0.5-1.7,0c-0.3,0.3,0.7,0.3,0,0.5c-0.9-0.1-2.4-0.3-3.5-0.2c0.1,0.3-0.2,0.3-0.5,0.4l-0.1-0.3
		c-1.2,0.5-0.5-0.6-1.7-0.2l0.1-0.2l-0.3,0.6c-1.1,0.7-0.7-0.5-1.8,0.4c0.5-0.1,0.3,0.6-0.3,0.5l0.1-0.3c-0.3,0.1-0.4,0.2-0.7,0.2
		c0.2-0.2,0.1-0.4-0.4-0.3l0.3-0.4l-0.9,0.6c-0.7-0.2-1.9,0.2-2.2-0.1c0,0-1.5-0.1-1.8,0.3c0.3-0.3-0.5-0.4-0.3-0.7
		c-0.4,0.3-1.5,0.6-2,0.3l0.1,0c-0.2-0.1-0.4-0.1-0.6-0.1l0,0l0,0c-0.1,0-0.2,0-0.2,0c-0.2-0.6-0.1-1-0.8-1.4
		c-0.4-0.2,0.1,0.8-0.5,0.2c-0.4-1-1.1-2.5-1.8-3.7c-0.2,0.3-0.4,0-0.7-0.3l0.2-0.2c-1.1-1,0.2-0.8-0.8-1.8l0.2,0l-0.7,0
		c-1.2-0.8,0.1-0.9-1.3-1.7c0.3,0.5-0.4,0.6-0.7-0.1l0.3,0c-0.3-0.3-0.4-0.3-0.5-0.6c0.3,0.1,0.4-0.1,0.1-0.6l0.5,0.1l-1-0.6
		c-0.2-0.9-1.2-1.8-1-2.3c0,0-0.8-1.6-1.3-1.8c0.4,0.2,0-0.7,0.4-0.6c-0.2-0.1-0.5-0.4-0.8-0.7c0.2-0.2,0.3-0.5,0.3-0.9
		c0-0.5-0.7,0.5-0.4-0.3c0.7-0.9,1.6-2.2,2.3-3.3c-0.4,0-0.2-0.4-0.1-0.7l0.3,0.1c0.3-1.5,0.8-0.2,1.2-1.6l0.1,0.2l-0.4-0.6
		c0.1-1.4,0.9-0.3,0.9-2c-0.2,0.5-0.7-0.1-0.2-0.6l0.2,0.3c0.1-0.4,0.1-0.5,0.3-0.7c0,0.3,0.3,0.3,0.5-0.2l0.1,0.5l0.1-1.2
		c0.7-0.6,1-1.9,1.5-2c0,0,1.1-1.5,0.9-2c0.1,0.4,0.6-0.4,0.8,0c0-0.2,0.1-0.6,0.2-1c0.3,0.1,0.5,0,0.9-0.2c0.4-0.3-0.8-0.3,0.1-0.5
		c1.1,0.1,2.7,0.4,4.1,0.4c-0.1-0.3,0.2-0.3,0.6-0.4l0.1,0.3c1.4-0.5,0.6,0.6,2,0.2l-0.1,0.2l0.4-0.6c1.3-0.6,0.7,0.6,2.1-0.2
		c-0.6,0.1-0.3-0.6,0.4-0.5l-0.2,0.3c0.4-0.1,0.5-0.2,0.8-0.1c-0.2,0.2-0.1,0.4,0.5,0.4l-0.4,0.4l1.1-0.5c0.8,0.3,2.2-0.1,2.5,0.3
		c0,0,1.8,0.2,2.2-0.2c-0.4,0.3,0.6,0.4,0.3,0.7c0.2-0.1,0.6-0.3,1-0.3c0.1,0.2,0.2,0.4,0.6,0.5c0.4,0.1-0.1-0.8,0.4-0.2
		c0.4,0.9,1,2.1,1.6,3.1c0.2-0.3,0.4,0,0.6,0.2l-0.2,0.2c1.1,0.8-0.2,0.8,0.8,1.6l-0.2,0l0.7-0.1c1.1,0.6-0.1,0.8,1.2,1.4
		c-0.3-0.4,0.4-0.6,0.6,0l-0.3,0C104.8,48.8,104.9,48.8,105,49z M95.7,22.3c0.3,0.1,0.1,0.5-0.3,0.8l0.9-0.7
		c0.2,0.3-0.4,0.5-0.7,0.8c1.4-0.4,2.1-2,3.7-2.5l0.2-0.4l0.1,0c-0.1-0.1,0.2-0.5,0.3-0.6c0.3,0.1,0.3,0.6,1,0.2
		c0.7-0.1,1.5-0.9,2.2-1.4c-0.4,0.1-0.4-0.1-0.2-0.2c0.4-0.2,0.7,0,0.9-0.2l0.2,0.3c-0.3-0.3,0.8-0.7,0.9-0.9
		c0.3,0.2-0.5,0.4-0.5,0.7c1.5-0.6,0.7-0.3,2.2-0.8c0.7-0.5-0.2-0.3,0-0.7c0.7-0.3,1.4-0.7,2.2-0.6l-0.1-0.1
		c0.8,0.2,1.9,0.3,3.1,0.8l-0.1,0.1c1.5,0.3,2,0.6,3,0.6c-0.3,0.6,0.8,0.8,0.8,1.2l-0.1,0c1,0.4,0.6,1.8,1.4,2.5
		c-0.1,0-0.2,0-0.3-0.2c0.4,0.6,0.8,1.5,0.4,1.7c0.1,0.4,0.3,0.9,0.4,1.4c0.1,0.4,0.1,0.8,0.2,1.2c0.1,0.9,0.2,1.7,0.5,2.3l-0.1-0.1
		c0.4,0.7,0,0.8,0.2,1.6c-0.1,0-0.1,0.1-0.1,0.1c0.3,0.8-0.2,2.1-0.2,2.7l-0.3,0l-0.2,1.4l0.2-0.5c0.7,0.3-0.7,1-0.5,2.1
		c-0.3,0.9,0.9,2.3,0.3,3.3c0.2,0.6-0.4-0.6-0.4,0.2c-0.4-0.1-0.1-0.4-0.5-0.3c0,0.1,0,0.2-0.1,0.3c-1.1-0.1-2.5-0.8-3.7-0.6
		l-0.4-0.4c-0.5,0.1-1,0.1-1.4-0.2l0-0.1c-0.7,0.1-1.4-0.1-1.8,0l0-0.1l-0.8,0l0.2-0.1c-1.2,0.1-2.3,0.1-3.3-0.1l0.1,0.3
		c-1.9-0.4-2.8,0.1-4.4-0.2c-2.1-2.4-4.4-4.6-5.9-7.2l0.1-0.4c0.3-0.4-1.4-0.5-1.1-0.9l-0.5-0.2c0-0.2-0.2-0.5,0.1-0.3
		c-0.3-0.4-0.4-0.3-0.7-0.5L93,26.9c-0.2-0.4-0.5-0.7-0.8-1C93.6,24.6,94.4,23.4,95.7,22.3z M68.4,16.2L68.4,16.2
		c0.8-0.6,1.9,0.4,2.8,0.1c0,0-0.1,0.2-0.3,0.2c0.7,0,1.7,0.1,1.7,0.4c0.4,0.1,0.9,0.2,1.4,0.3c0.4,0.1,0.8,0.3,1.2,0.4
		c0.8,0.4,1.6,0.6,2.3,0.7l-0.1,0.1c0.8,0,0.7,0.4,1.5,0.6c0,0.1,0,0.1,0,0.1c0.8,0.1,1.7,1.2,2.3,1.5L81,20.9l1.2,0.9l-0.4-0.4
		c0.6-0.4,0.5,1.1,1.6,1.4c0.7,0.7,2.5,0.3,3,1.3c0.6,0.1-0.7,0.1,0,0.4c-0.2,0.3-0.4-0.1-0.5,0.3c0.1,0.1,0.2,0.2,0.3,0.3
		c-0.7,0.9-1.9,1.8-2.3,2.8l-0.5,0.2c-0.2,0.4-0.4,0.9-0.8,1.2l0-0.1c-0.3,0.7-0.8,1.2-0.9,1.5l-0.1-0.1l-0.5,0.7l0-0.2
		c-0.5,1.1-1.1,2-1.7,2.8l0.3,0.1c-1.3,1.4-1.3,2.4-2.2,3.5c-3.7,0.5-7.4,1.2-10.9,1.3l-0.3-0.3c-0.2-0.5-1.3,1-1.6,0.6l-0.6,0.3
		c-0.2-0.1-0.6-0.1-0.3-0.2c-0.5,0.1-0.6,0.2-0.8,0.3c-0.4-1.5-1-2.8-1.2-4.2c0.2-0.2,0.4,0.2,0.6,0.6l-0.2-1.1c0.3,0,0.2,0.6,0.3,1
		c0.3-1.4-0.8-2.8-0.3-4.4L62,31.1l0-0.1c-0.1,0-0.3-0.4-0.4-0.6c0.3-0.2,0.6,0,0.6-0.8c0.3-0.6-0.1-1.8-0.1-2.6
		c-0.1,0.4-0.2,0.3-0.3,0.1c0-0.4,0.3-0.6,0.2-0.9l0.4,0c-0.4,0.1-0.3-1.1-0.4-1.2c0.3-0.2,0.1,0.6,0.3,0.8c0.2-1.6,0.1-0.8,0.3-2.3
		c-0.1-0.9-0.4,0.1-0.6-0.4c0.1-0.7,0-1.5,0.5-2.3l-0.1,0c0.5-0.6,1.2-1.5,2.2-2.3l0.1,0.1c1-1.2,1.5-1.4,2-2.3
		C67.3,16.8,68,16,68.4,16.2z M58.8,70.8L58.8,70.8c-0.1,0.1-0.5,0.1-0.7,0.1c-0.1-0.3,0.3-0.6-0.4-0.8c-0.4-0.4-1.5-0.5-2.2-0.7
		c0.3,0.2,0.2,0.3,0,0.3c-0.3-0.1-0.4-0.5-0.7-0.5l0.1-0.3c0,0.4-1-0.1-1.2,0c-0.1-0.3,0.6,0,0.8-0.1c-1.3-0.6-0.6-0.3-1.9-0.9
		c-0.8-0.1,0,0.4-0.5,0.5c-0.6-0.2-1.3-0.3-1.9-0.9l0,0.3c-0.5-0.8-1.4-1.7-2.6-3l0.1,0c-1.6-1.3-2.4-2.1-3.7-2.7
		c0.3-0.6-0.9-1.2-0.9-1.7l0.1,0c-0.5-0.3-0.6-0.9-0.6-1.3c0-0.2,0-0.5,0-0.7c0-0.2,0-0.4-0.2-0.7c0.1,0,0.2,0.1,0.3,0.3
		c-0.1-0.3,0-0.7,0-1.1c0.1-0.3,0.2-0.6,0.4-0.5c0.2-0.8,0.6-1.7,1.2-2.5c0.6-0.8,1.2-1.5,1.5-2.2l0,0.1c0.3-0.8,0.7-0.6,1.2-1.3
		c0.1,0,0.1,0,0.1,0c0.4-0.8,2-1.4,2.5-1.8l0.2,0.2c0.5-0.3,1-0.6,1.5-0.8l-0.6,0.2c-0.1-0.7,1.3-0.2,2.3-1.1
		c1.1-0.4,1.6-2.3,2.8-2.5c0.4-0.5-0.3,0.7,0.4,0.1c0.2,0.3-0.3,0.4,0,0.6c0.7-0.5,1.4-0.2,2.3-0.7l0.1,0.3c0.2-0.2,0.4-0.3,0.6-0.4
		c0.7,0.9,0.8,2.9,1.6,3.9L61,48.9c0.3,0.4,0.6,0.8,0.6,1.3l-0.1,0c0.5,0.5,0.6,1.3,0.9,1.5l-0.1,0l0.4,0.7l-0.2-0.1
		c0.7,0.9,1.2,1.9,1.6,2.9l0.3-0.2c0.6,1.8,1.4,2.3,2,3.6c-1.4,3.5-2.6,7-4.3,10.1l-0.4,0.1c-0.5-0.1,0.2,1.6-0.3,1.7l0,0.7
		c-0.1,0.1-0.2,0.2-0.3,0.2c0,0,0,0-0.1,0c0,0,0,0,0-0.1c0,0,0,0.1,0,0.1c-0.6-0.1-1.3-0.2-1.8-0.7L58.8,70.8z M86,91l-0.1,0.4
		l-0.1,0c0.1,0.1-0.1,0.4-0.2,0.6c-0.3-0.1-0.4-0.5-0.9-0.1c-0.6,0.1-1.2,1-1.7,1.6c0.3-0.2,0.3,0,0.2,0.2c-0.3,0.2-0.6,0.1-0.8,0.4
		l-0.2-0.3c0.3,0.2-0.5,0.8-0.6,1C81.4,94.6,82,94.3,82,94c-1.1,0.8-0.6,0.4-1.7,1.2c-0.5,0.6,0.3,0.2,0.2,0.7
		c-0.5,0.4-0.9,1-1.7,1.2l0.2,0.1C78,97.3,76.7,97.6,75,98l0-0.1c-1.9,0.7-3,1.1-4.2,1.9c-0.3-0.6-1.5,0.2-1.9-0.1l0-0.1
		c-0.5,0.3-1,0.1-1.5-0.1c-0.2-0.1-0.4-0.2-0.6-0.4c-0.2-0.1-0.4-0.2-0.7-0.2c0.1,0,0.2-0.2,0.4-0.1c-0.3-0.1-0.7-0.3-0.9-0.5
		c-0.2-0.2-0.4-0.4-0.3-0.6c-0.6-0.5-1.1-1.4-1.6-2.2c-0.4-0.9-0.7-1.8-1.2-2.4l0.1,0.1c-0.6-0.6-0.2-0.9-0.5-1.7
		c0-0.1,0.1-0.1,0.1-0.1c-0.5-0.8-0.2-2.4-0.3-3.1l0.3,0c0-0.6,0-1.1,0-1.7l-0.1,0.6c-0.7-0.3,0.5-1.3,0.1-2.5
		c0.2-1.1-1.3-2.5-0.8-3.7c-0.3-0.6,0.5,0.6,0.3-0.3c0.4,0,0.2,0.4,0.5,0.2c-0.1-0.9,0.5-1.4,0.5-2.4l0.3,0c-0.1-0.4,0-0.8,0.1-1.1
		c1.5,0.5,3.1,0.9,4.5,1.1c1-0.2,2.5,0.6,3.7,0.4l0.4,0.4c0.4-0.1,0.8-0.1,1.2,0.1l0,0.1c0.6-0.1,1.2,0.1,1.5,0.1l0,0.1l0.7,0
		l-0.1,0.1c1-0.1,2,0,2.9,0.2l0-0.3c0.8,0.2,1.4,0.2,1.9,0.2c2.1,2.6,4.3,5.1,6,7.8l-0.1,0.4c-0.3,0.4,1.5,0.6,1.3,1.1l0.6,0.3
		c0,0.1,0,0.1,0.1,0.2C87.2,90.1,86.7,90.7,86,91z M117.6,90.6l-0.1-0.1c-0.3,2-0.6,3.2-0.4,4.6c-0.7,0-0.5,1.4-1,1.6l0-0.1
		c0,0.6-0.4,0.9-0.8,1.2c-0.2,0.1-0.4,0.2-0.6,0.4c-0.2,0.1-0.4,0.2-0.5,0.5c0-0.1-0.1-0.2,0.1-0.4c-0.2,0.2-0.6,0.4-0.9,0.6
		c-0.3,0.1-0.6,0.1-0.7-0.1c-0.8,0.3-1.7,0.3-2.7,0.3c-1-0.1-1.9-0.2-2.7-0.2l0.1-0.1c-0.8,0.2-0.9-0.3-1.8-0.4c0-0.1-0.1-0.1,0-0.1
		c-0.9,0-2.2-1-2.9-1.2l0.1-0.2c-0.5-0.3-1-0.5-1.5-0.8l0.5,0.4c-0.6,0.5-0.8-1.1-2.1-1.4c-0.9-0.7-2.8-0.1-3.6-1.2
		c-0.7-0.1,0.7-0.1-0.1-0.4c0.2-0.3,0.5,0.1,0.5-0.3c-0.8-0.4-0.9-1.1-1.8-1.6l0.2-0.2c-0.4-0.1-0.7-0.4-1-0.6
		c1.1-1.1,2.2-2.2,3.1-3.3c0.3-1,1.8-1.9,2.1-3l0.5-0.1c0.1-0.4,0.3-0.8,0.7-1l0,0.1c0.2-0.6,0.7-1,0.8-1.3l0.1,0.1l0.4-0.6l0,0.2
		c0.4-0.9,1-1.8,1.6-2.4l-0.3-0.1c0.5-0.5,0.8-1,1.1-1.4c2.5-0.5,5.1-1,7.5-1l0.3,0.3c0.2,0.5,1.1-0.9,1.3-0.5l0.5-0.3
		c0.2,0.1,0.5,0.1,0.2,0.3c0.5-0.1,0.5-0.2,0.8-0.4l0.6,0.2c0.5,0,1.1-0.1,1.5-0.3c0.2,0.5,0.4,1.1,0.3,1.8l0.3,0.3l0,0.1
		c0.1,0,0.4,0.3,0.4,0.5c-0.2,0.2-0.6,0.1-0.5,0.8c-0.2,0.6,0.3,1.5,0.5,2.2c0-0.4,0.2-0.3,0.3-0.1c0,0.3-0.2,0.6-0.1,0.8l-0.4,0.1
		c0.3-0.2,0.5,0.9,0.6,1c-0.3,0.2-0.3-0.5-0.5-0.6c0.1,1.4,0.1,0.7,0.2,2.1c0.3,0.7,0.3-0.2,0.7,0.2c0.1,0.7,0.4,1.3,0.2,2.1
		l0.2-0.2C118.5,87.7,118.1,88.9,117.6,90.6z M136.8,60.6L136.8,60.6c0.1,1-1.3,1.4-1.5,2.4c0-0.1-0.1-0.2,0-0.4
		c-0.3,0.6-0.9,1.4-1.2,1.2c-0.3,0.3-0.6,0.7-1,1c-0.3,0.3-0.7,0.5-1,0.8c-0.8,0.5-1.4,1.1-1.8,1.6l0-0.1c-0.4,0.7-0.7,0.4-1.3,0.9
		c-0.1,0-0.1,0-0.1-0.1c-0.5,0.7-1.9,0.9-2.4,1.2l-0.1-0.2l-1.4,0.5l0.5-0.1c0,0.8-1.2-0.1-2.1,0.7c-1,0.2-1.6,2-2.7,1.9
		c-0.4-1.9-1-3.9-1.7-5.7c-0.7-0.7-0.7-2.5-1.5-3.3l0.1-0.5c-0.3-0.3-0.5-0.7-0.5-1.1l0.1,0c-0.4-0.5-0.5-1.1-0.7-1.3l0.1,0
		l-0.3-0.6l0.2,0.1c-0.6-0.8-1-1.7-1.3-2.6l-0.3,0.2c-0.2-0.7-0.4-1.2-0.7-1.6c0.8-2.5,1.6-4.9,2.8-6.9l0.4-0.1
		c0.5,0.1-0.3-1.4,0.2-1.4l0-0.6c0.1-0.1,0.3-0.4,0.3-0.1c0.2-0.4,0.1-0.5,0.1-0.9l0.5-0.4c0.2-0.4,0.4-0.8,0.5-1.3
		c1.8,0.5,3.2,0.7,4.8,1.2c0.1,0.3-0.4,0.3-0.8,0.2l1.1,0.4c-0.1,0.3-0.7-0.1-1-0.2c1,1,2.8,0.8,4,2l0.4-0.1l0.1,0.1
		c0.1-0.1,0.5-0.1,0.7,0c0.1,0.4-0.3,0.5,0.4,0.9c0.4,0.6,1.6,0.9,2.3,1.2c-0.3-0.3-0.1-0.3,0.1-0.3c0.3,0.2,0.3,0.6,0.7,0.7
		l-0.2,0.3c0.1-0.4,1,0.3,1.2,0.3c0,0.4-0.6-0.2-0.8-0.1c1.2,1,0.6,0.5,1.8,1.5c0.8,0.4,0.1-0.4,0.6-0.3c0.6,0.5,1.3,0.8,1.7,1.6
		l0-0.1c0.2,0.8,0.6,1.8,0.8,3l-0.1,0c0.5,1.4,0.5,2,1,3C136.9,59.3,137.2,60.3,136.8,60.6z"/>
	<path d="M58.6,70.5l0.2,0.2C58.8,70.7,58.8,70.6,58.6,70.5z"/>
	<path d="M67.9,78.5L67.9,78.5C67.8,78.5,67.8,78.5,67.9,78.5L67.9,78.5z"/>
	<path d="M99.9,20.2l-0.3,0C99.6,20.3,99.7,20.3,99.9,20.2z"/>
	<path d="M85.5,91.4l0.3-0.1C85.7,91.3,85.7,91.3,85.5,91.4z"/>
	<path d="M97,87.3L97,87.3C97,87.3,97,87.4,97,87.3L97,87.3z"/>
	<path d="M62.2,30.7L62.1,31C62.1,31,62.2,31,62.2,30.7z"/>
	<path d="M117.2,78c-0.1,0-0.1,0.1-0.1,0.3L117.2,78z"/>
	<path d="M119.1,66.3L119.1,66.3C119.1,66.3,119.2,66.3,119.1,66.3L119.1,66.3z"/>
	<path d="M83.8,63.6l0-0.2C83.7,63.4,83.7,63.5,83.8,63.6z"/>
	<path d="M98.2,57.2c-0.3-0.2,0.6,0.2,0.3-0.2c0.4,0,0.2,0.2,0.5,0c-0.2-0.3,0.3-0.7,0-1.1l0.3-0.1c-0.6-0.5,0.1-1.3-0.6-1.5
		c-0.5-0.5,0.6-0.8-0.2-1.2l0.2-0.4c-0.1-0.3-0.5,0.1-0.5-0.3c0.2-0.1-0.1-0.5,0.2-0.4c-0.2-0.9-1.4-0.9-1.8-2.1
		c-0.5,0.2-0.8-0.3-1.1-0.1c0.1-0.2-0.9-0.5-0.2-0.7c0.1,0,0.1,0,0.1,0.1l0.2-0.2c-0.3-0.8-1.2-0.3-1.7-0.5c0.1,0.1,0.4,0.2,0.1,0.3
		l-0.5-0.2l0.2-0.2c-0.2-0.1-0.5-0.2-0.8-0.4l0,0.3c-0.3-0.2-0.4-0.8-0.9-0.4c-0.2,0.2,0.3,0.4-0.1,0.5c-0.5-0.3-1.2-0.6-1.8-0.7
		c0.1,0.3-0.1,0.3-0.3,0.4l0-0.3c-0.7,0.4-0.3-0.6-1-0.3l-0.1,0.4c-0.5,0.6-0.4-0.6-1,0.3c0.3-0.1,0.2,0.6-0.1,0.5l0-0.3
		c-0.2,0.1-0.2,0.2-0.3,0.2c0.1-0.2,0-0.4-0.3-0.3l0.1-0.4c-0.1,0.2-0.3,0.4-0.4,0.6c-0.5-0.1-1,0.5-1.3,0.2c0,0-0.2,0.1-0.5,0.2
		c-0.2,0.1-0.4,0.4-0.4,0.6c0-0.3-0.5-0.1-0.6-0.4c0,0.4-0.4,1.1-0.8,1.1l0-0.1c-1.1,0.6-0.8,1.7-1.6,2.3c0.3,0.1,0,0.5,0.4,0.5
		c0,0.9-1.4,1.2-0.2,1.9c0,0.4-0.4,0.3-0.5,0.5l0-0.1c0,0.7-0.1,0.8-0.2,1.5c0.1,0.3,0.7,0.4,0.5,0.9c-0.3-0.2-0.2,0-0.2,0.2
		c0-0.1-0.1-0.2-0.3,0.1c0.1,0,0.1,0.1,0.2,0.1c0,0,0,0-0.1,0c0.1,0.3,0.2,0.3,0.2,0.1c0,0,0.1,0,0.2-0.1c-0.3,0.4,0.1,0.9-0.3,1
		c0.3,1,1,1.4,1.5,2c-0.1,0.2-0.4,0.1-0.6,0c0.1,0.2,0.2,0.3,0.3,0.4c-0.3,0.2-0.3-0.2-0.5-0.3c-0.1,0.9,1.2,0.9,1.3,1.7l0.3-0.1
		l0,0.1c0.1-0.1,0.3-0.1,0.4-0.1c-0.1,0.3-0.4,0.4-0.1,0.7c0,0.4,0.8,0.4,1.1,0.5c-0.1-0.2,0-0.2,0.1-0.3c0.1,0.1,0.1,0.4,0.3,0.3
		l-0.2,0.3c0.1-0.3,0.6-0.1,0.7-0.2c0,0.3-0.4,0.1-0.5,0.2c0.6,0.4,0.3,0.2,1,0.5c0.5-0.1,0.1-0.3,0.4-0.6c0.3,0.1,0.7-0.1,1,0.3
		l0-0.3c0.3,0,0.5,0,0.7,0.1c0.3,0.5,0.7,1,1.6,1.6l0,0.1c0.9,0.3,1.6,0.3,2.2-0.4c0.2,0.7,0.8-0.1,1.1,0.1l0,0.1
		c0.4-0.6,1.4,0,1.8-0.7c0,0.1,0.1,0.2,0,0.3c0.4-0.3,0.8-0.7,1.1-0.4c0.9-0.7,2.2-1.8,2-2.7l0.1,0.1c-0.1-0.5,0.2-0.5,0.2-0.9
		c0.1,0,0.1,0,0.1,0c-0.2-0.5,0.4-1.1,0.3-1.5l0.3,0.1c0.1-0.3,0.1-0.5,0.1-0.8l-0.1,0.3c-0.7-0.2,0.6-0.5,0.2-1.2
		C99.5,58.2,97.9,57.7,98.2,57.2z"/>
	<polygon points="88.9,47.6 88.9,47.6 89,47.4 	"/>
</g>
</svg>
